<svg xmlns="http://www.w3.org/2000/svg" xmlns:xlink="http://www.w3.org/1999/xlink" version="1.1" id="logo" x="0" y="0" width="535.75" height="358.49" viewBox="0 0 535.75 358.49" enable-background="new 0 0 535.749 358.494" xml:space="preserve">
  <rect fill="#0B57A4" width="176.93" height="358.49"/>
  <rect x="170.08" fill="#231F20" width="197.85" height="358.49"/>
  <polygon fill="#FE2A12" points="308.77 318.1 308.77 291.43 250.29 291.38 250.34 200.1 221.7 200.1 221.7 260.43 221.7 318.1 250.34 318.1 "/>
  <rect x="361.42" fill="#FE2A12" width="174.33" height="358.49"/>
  <path fill="#FFFFFF" d="M155.19 97.21H120.48v35.4c-3.74 0.21 0.05 0.21-3.97 0.21 -14.98 0-28.64-5.25-28.64-35.72 0-27.59 19.24-32.91 31.77-32.91 6.04 0 11.83 1.25 21.48 4.34l10.52-24.52c-10.51-4.3-19.25-6.37-32.21-6.37 -42.26 0-68.45 21.38-68.45 60.48 0 42.4 23.71 61.04 65.09 61.04 15.66 0 27.51-2.46 39.14-7.6V97.21z"/>
  <polygon fill="#FE2A12" points="191.57 37.65 250.17 155.65 308.77 37.65 "/>
  <polygon fill="#FFFFFF" points="361.42 196.12 420.02 314.12 478.62 196.12 "/>
  <polygon fill="#FFFFFF" points="87.83 200.1 55.84 200.1 55.84 318.1 87.83 318.1 86.8 255.14 129.89 318.1 159.83 318.1 159.83 200.1 128.03 200.1 129.47 260.46 "/>
  <polygon fill="#FFFFFF" points="420.02 155.66 478.62 37.65 448.66 37.65 420.02 97.97 391.37 37.65 361.42 37.65 391.37 97.99 "/>
</svg>
